<?xml version="1.0" encoding="UTF-8" standalone="no"?>
<!DOCTYPE svg PUBLIC "-//W3C//DTD SVG 1.1//EN" "http://www.w3.org/Graphics/SVG/1.1/DTD/svg11.dtd">
<svg width="100%" height="100%" viewBox="0 0 629 814" version="1.1" xmlns="http://www.w3.org/2000/svg" xmlns:xlink="http://www.w3.org/1999/xlink" xml:space="preserve" xmlns:serif="http://www.serif.com/" style="fill-rule:evenodd;clip-rule:evenodd;stroke-linejoin:round;stroke-miterlimit:2;">
    <g transform="matrix(1,0,0,1,-969.848,-1458.78)">
        <g transform="matrix(-1,0,0,1,2568.29,0)">
            <path d="M1158.9,1812.89L1221.49,1749.69L1270.59,1750.22L1331.32,1687.47L1439.61,1687.59L1501.62,1749.47L1473.34,1750.19L1598.44,1874.33L1552.58,1875.94L1553.11,2030.53L1479.34,2098.33L1478.07,2060.51L1410.15,2094.59L1409.9,2163.72L1485.29,2163.46L1524.8,2215.53L1477.86,2260.42L1478.54,2181.23L1403.46,2208.38L1403.17,2177.07L1308.69,2159.2L1311.03,2144.75L1286.88,2155.2L1287.39,2249.29L1325.95,2225.98L1369,2272.7L1212.38,2272.7L1240.16,2242.77L1271.52,2252.6L1260.68,2216.73L1229.65,2216.73L1215.6,2189.45L1103.38,2245.5L1105.85,2210.26L993.681,2210.26L1103.92,2143.3C1063.8,2157.02 1014.53,2166.51 969.848,2153.23L1265.71,1857.37L1326.7,1857.37L1282.16,1812.83L1158.9,1812.89ZM1346.32,1738.94C1354.6,1738.94 1361.31,1745.66 1361.31,1753.94C1361.31,1762.21 1354.6,1768.93 1346.32,1768.93C1338.04,1768.93 1331.32,1762.21 1331.32,1753.94C1331.32,1745.66 1338.04,1738.94 1346.32,1738.94Z" style="fill:url(#_Linear1);"/>
        </g>
        <g transform="matrix(-1,0,0,1,2568.29,0)">
            <path d="M1266.87,1922.76L1376.44,1922.76C1376.44,1961.57 1378.64,2003.05 1311.68,2013.22L1311.68,1929.86L1308.75,1929.86C1284,2028 1148.82,2086.93 1081.97,2107.43L1266.87,1922.76Z" style="fill:rgb(66,143,255);"/>
            <path d="M1394.49,1814.15L1453.72,1814.15L1453.72,1872.15L1394.49,1814.15Z" style="fill:rgb(66,143,255);"/>
            <g transform="matrix(1,0,0,1,59.2319,59.2319)">
                <path d="M1394.49,1814.15L1453.72,1814.15L1453.72,1872.15L1394.49,1814.15Z" style="fill:rgb(66,143,255);"/>
            </g>
            <g transform="matrix(1,0,0,1,0,59.2319)">
                <path d="M1394.49,1814.15L1453.72,1814.15L1453.72,1872.15L1394.49,1814.15Z" style="fill:rgb(66,143,255);"/>
            </g>
        </g>
        <g transform="matrix(-1,0,0,1,2568.29,0)">
            <path d="M1331.32,1556.65L1376.45,1556.65L1376.45,1655.74L1453.72,1556.86L1409.75,1556.86L1409.75,1458.78L1331.32,1556.65" style="fill:white;"/>
        </g>
    </g>
    <defs>
        <linearGradient id="_Linear1" x1="0" y1="0" x2="1" y2="0" gradientUnits="userSpaceOnUse" gradientTransform="matrix(-38.3983,585.235,-544.867,-35.7498,1369.72,1687.47)"><stop offset="0" style="stop-color:rgb(65,71,255);stop-opacity:1"/><stop offset="0.57" style="stop-color:rgb(66,121,255);stop-opacity:1"/><stop offset="1" style="stop-color:rgb(66,143,255);stop-opacity:1"/></linearGradient>
    </defs>
</svg>
