<?xml version="1.0" encoding="UTF-8" standalone="no"?>
<!DOCTYPE svg PUBLIC "-//W3C//DTD SVG 1.1//EN" "http://www.w3.org/Graphics/SVG/1.1/DTD/svg11.dtd">
<svg width="100%" height="100%" viewBox="0 0 1644 1211" version="1.1" xmlns="http://www.w3.org/2000/svg" xmlns:xlink="http://www.w3.org/1999/xlink" xml:space="preserve" xmlns:serif="http://www.serif.com/" style="fill-rule:evenodd;clip-rule:evenodd;stroke-linejoin:round;stroke-miterlimit:2;">
    <g transform="matrix(1,0,0,1,-480.326,-1400.6)">
        <g transform="matrix(-1,0,0,1,2603.7,0)">
            <path d="M611.252,1426.16C604.378,1423.66 604.677,1419.89 627.439,1417.62C679.158,1412.46 803.81,1394.07 841.295,1403.03C851.281,1414.72 936.75,1492.22 946.398,1504.52C952.157,1511.86 1032.8,1530.74 1066.7,1532.24C1084.68,1538.95 1125.64,1604.53 1140.73,1619.85C1148.33,1629.13 1262.95,1621.78 1283.68,1624.21C1317.36,1638.24 1397.32,1703.03 1433.64,1715.19C1464.4,1720.21 1529.79,1801.27 1560.37,1826.87C1570.27,1835.16 1590.38,1883.16 1598.65,1893.08C1617.02,1915.13 1677,1955.62 1714.9,1993.73C1764.86,2043.96 1807.3,2097.78 1852.27,2136.79C1874.62,2156.16 1901.31,2157.08 1923.4,2163.13C1960.84,2173.38 1993.09,2179.55 2027.07,2178.63C2033.61,2178.45 2034.04,2206.49 2044.64,2210.43C2055.37,2214.42 2069.28,2214.18 2069.28,2214.18C2069.28,2214.18 2026.13,2216.58 1998.01,2219.2C1983.85,2220.52 1987.37,2242.05 2006.63,2235.69C2019.61,2231.4 2032.71,2245.09 2053.55,2253.1C2076.26,2261.82 2088.47,2276.88 2106.09,2278.98C2112.64,2279.77 2121.43,2278.99 2122.96,2282.01C2125.38,2286.8 2116.7,2285.91 2109.45,2285.39C2095.9,2284.41 1988.42,2263.74 1932.79,2268.29C1917.22,2269.57 1904.7,2265.94 1899.91,2269.67C1890.52,2276.99 1897.65,2299.16 1921.87,2298.26C1939.28,2297.61 1952.99,2324.64 1975.93,2339.98C2009.53,2362.44 2035.81,2395.34 2040.05,2408.49C2041.6,2413.3 2060.2,2427.5 2057.89,2429.56C2049.68,2436.86 2021.53,2413.66 1997.92,2417.71C1990.58,2418.97 1982.63,2421.41 1974.69,2418.81C1949.94,2410.71 1927.05,2381.89 1924.22,2373.44C1923.21,2370.41 1915.47,2370.31 1913.45,2374.46C1908.06,2385.55 1905.33,2409.22 1909.45,2425.41C1915.12,2447.66 1887.89,2440.71 1887.89,2440.71C1887.89,2440.71 1817.38,2400.22 1785.44,2394.84C1753.5,2389.46 1761.8,2413.15 1762.47,2435.39C1748.79,2438.03 1736.52,2443.5 1724.39,2445.56C1717.76,2446.69 1687.07,2412.68 1675.35,2404.71C1664.84,2397.55 1665.43,2364.46 1663.01,2353.62C1660.58,2342.79 1632.56,2330.33 1614.66,2329.94C1606.23,2329.75 1606.61,2300.68 1594.06,2302.18C1587.49,2302.97 1506.81,2360.96 1461.98,2422.18C1446.92,2442.74 1426.72,2449.81 1423.16,2458.55C1431.91,2464.8 1457.86,2453.82 1467.95,2457.69C1470.67,2458.73 1473.23,2466.77 1468.5,2469.66C1453.69,2473.35 1421.79,2472.92 1403.94,2487.27C1410.14,2512.5 1417.95,2555.34 1417.62,2565.78C1417.3,2576.22 1408.62,2572.82 1404.39,2563.4C1400.17,2553.99 1385.84,2512.07 1383.24,2502.54C1380.63,2493 1339.2,2539.68 1333.76,2595.6C1332.56,2607.9 1325.93,2621.55 1321,2600.13C1314.65,2572.58 1329.16,2547.8 1329.56,2538.29C1329.95,2529.23 1288.95,2570.95 1284.77,2590.38C1282.47,2601.04 1265.77,2602 1270.43,2575.96C1279.49,2525.37 1340.15,2484.37 1369.09,2464.87C1392.95,2448.79 1392.18,2422.12 1400.23,2408.47C1406.73,2397.47 1422.54,2394.04 1423.52,2378.81C1425.96,2340.86 1429.41,2315.8 1430.2,2304.14C1431,2292.49 1433.28,2283.43 1411.24,2288.87C1389.21,2294.32 1321.97,2323.67 1308.19,2327.51C1302.99,2328.96 1297.58,2334.97 1308.25,2338.57C1290.95,2371.07 1279.14,2424.86 1221.87,2472.49C1248.95,2473.44 1269.16,2469.11 1289.2,2470.73C1292.19,2470.97 1307.64,2481.73 1287.4,2485.59C1250.95,2488.35 1195.47,2497.8 1183.32,2501.56C1150.59,2509.06 1129.55,2567.94 1120.98,2593.35C1120.98,2593.35 1110.93,2598.17 1113.58,2580.37C1116.23,2562.56 1127.31,2530.72 1144.27,2513.18C1101.29,2535.74 1080.13,2554.82 1069.32,2558.04C1066.43,2558.89 1056.05,2557.85 1059.26,2553.16C1068.11,2540.28 1104.93,2511.32 1111.17,2506.21C1119.68,2499.23 1056.71,2498.56 1038.3,2525.11C1022.33,2548.14 1014.96,2534.45 1029.56,2516.44C1059.88,2479.03 1105.14,2487.12 1137.06,2479.9C1172.99,2456.16 1192.92,2462.44 1217.09,2436.64C1234.63,2417.93 1245.92,2393.94 1256.65,2374.81C1272.55,2346.47 1283.97,2325.05 1286.3,2316.79C1290.21,2302.95 1295.46,2290.72 1285.49,2275.72C1281.05,2269.06 1264.05,2248.72 1248.22,2224.56C1228.41,2194.34 1216.09,2162.05 1198.67,2156.7C1193.02,2154.96 1179.61,2154.37 1164.22,2149.07C1130.31,2137.39 1093.9,2111.33 1070.53,2111.57C1046.08,2111.84 1051.56,2075.09 1053.47,2062.16C1055.38,2049.24 1053.45,1935.14 1037.02,1918.94C1026.29,1908.37 973.638,1888.3 887.244,1867.23C859.503,1860.46 831.433,1850.75 802.633,1844.95C691.068,1822.52 529.159,1811.54 488.865,1815.95C466.969,1818.35 494.096,1806.53 494.096,1806.53C494.096,1806.53 552.394,1796.31 624.849,1775.31C736.672,1742.9 837.72,1712.71 889.478,1715.12C922.177,1716.65 920.764,1723.44 919.153,1717.99C889.649,1618.23 806.974,1497.32 611.252,1426.16ZM995.966,1596.66C962.219,1627.07 968.487,1662.28 989.45,1678.27C1017.22,1699.44 1045.54,1683.07 1057.32,1667.88C1069.57,1652.06 1087.98,1620.75 1061.93,1595.61C1036.7,1571.26 1013.33,1581.02 995.966,1596.66Z" style="fill:rgb(45,44,42);"/>
        </g>
    </g>
</svg>
